<?xml version="1.0" standalone="no"?>
<!DOCTYPE svg PUBLIC "-//W3C//DTD SVG 20010904//EN"
 "http://www.w3.org/TR/2001/REC-SVG-20010904/DTD/svg10.dtd">
<svg version="1.0" xmlns="http://www.w3.org/2000/svg"
 width="1119.000000pt" height="1119.000000pt" viewBox="0 0 1119.000000 1119.000000"
 preserveAspectRatio="xMidYMid meet">

<g transform="translate(0.000000,1119.000000) scale(0.100000,-0.100000)"
fill="#000000" stroke="none">
<path d="M5480 9703 c-1286 -32 -2499 -683 -3246 -1743 -416 -590 -666 -1274
-734 -2005 -16 -178 -14 -573 5 -758 96 -958 504 -1824 1180 -2502 636 -637
1434 -1038 2330 -1169 377 -55 874 -50 1253 14 1556 263 2814 1373 3267 2885
113 377 166 743 166 1165 1 251 -10 404 -42 620 -267 1776 -1673 3182 -3449
3449 -222 33 -493 49 -730 44z m483 -298 c769 -74 1481 -371 2084 -869 153
-127 399 -377 527 -536 488 -608 770 -1316 837 -2098 17 -199 7 -611 -20 -807
-144 -1061 -706 -1995 -1574 -2617 -463 -331 -1023 -565 -1578 -657 -397 -66
-867 -68 -1254 -6 -1001 160 -1909 724 -2502 1551 -368 513 -598 1095 -684
1729 -29 214 -37 632 -15 855 75 781 370 1492 871 2097 114 139 350 374 488
488 599 496 1307 793 2072 870 179 18 566 18 748 0z"/>
<path d="M5652 9141 c-133 -46 -195 -176 -194 -406 1 -186 46 -285 154 -339
98 -49 207 -28 281 54 49 54 67 103 67 182 0 194 -182 315 -323 215 l-29 -20
7 49 c12 81 39 133 79 149 19 8 43 12 53 8 30 -10 63 -45 63 -66 0 -19 5 -19
71 -14 39 3 73 8 75 10 2 2 -3 24 -12 50 -19 56 -86 121 -140 136 -54 15 -91
13 -152 -8z m108 -376 c59 -31 79 -171 33 -233 -63 -84 -173 -18 -173 105 0
63 20 107 58 127 34 19 46 19 82 1z"/>
<path d="M4945 9101 c-113 -28 -185 -115 -185 -222 l0 -39 58 0 c70 0 78 5 87
53 15 78 73 113 138 82 40 -19 57 -50 57 -104 0 -48 -27 -98 -126 -236 -44
-61 -90 -135 -103 -165 -23 -53 -41 -170 -26 -170 28 0 482 84 489 91 8 7 -7
116 -18 126 -2 2 -66 -8 -141 -22 -76 -14 -140 -25 -143 -25 -6 0 20 40 99
151 81 113 106 166 115 240 8 72 -9 131 -53 180 -53 58 -154 83 -248 60z"/>
<path d="M6226 8894 c-43 -96 -76 -180 -74 -186 2 -6 26 -19 52 -29 44 -16 52
-17 77 -4 15 8 47 15 71 15 70 -1 108 -44 108 -123 0 -167 -183 -234 -221 -81
-12 47 -13 48 -101 59 l-48 6 0 -41 c0 -52 19 -96 60 -144 46 -52 103 -78 181
-84 74 -5 128 13 187 62 98 84 123 252 52 357 -44 65 -90 92 -166 97 -35 3
-64 8 -64 12 0 25 43 100 58 100 9 0 64 -11 122 -25 58 -14 112 -25 121 -25
12 0 20 16 28 61 7 34 11 63 8 65 -5 5 -344 84 -361 84 -8 0 -46 -74 -90 -176z"/>
<path d="M4260 8901 c-112 -37 -180 -125 -180 -234 0 -150 115 -277 252 -277
47 0 119 39 143 77 11 18 23 32 26 33 4 0 12 -20 18 -44 30 -122 -6 -194 -94
-188 -11 0 -30 13 -42 27 l-23 26 -60 -33 c-33 -18 -60 -36 -60 -40 0 -16 56
-71 92 -89 48 -24 130 -27 181 -6 54 23 112 82 137 139 69 161 -62 508 -223
590 -44 22 -129 32 -167 19z m100 -143 c45 -31 75 -91 75 -151 0 -41 -5 -53
-28 -73 -77 -66 -187 21 -187 150 0 86 69 122 140 74z"/>
<path d="M6980 8790 c-19 -10 -48 -32 -63 -48 l-29 -30 54 -40 53 -41 25 24
c36 35 78 40 117 16 90 -56 17 -182 -89 -154 -39 10 -39 10 -69 -34 -17 -24
-29 -46 -27 -47 1 -2 22 -13 45 -25 48 -24 63 -46 63 -91 0 -58 -52 -126 -104
-136 -69 -12 -116 32 -119 113 l-2 48 -62 22 -62 22 -12 -41 c-50 -187 189
-362 369 -269 74 38 132 122 132 191 0 38 -22 92 -48 118 -20 20 -20 20 17 26
113 18 178 132 137 240 -48 124 -216 195 -326 136z"/>
<path d="M3595 8530 c-84 -61 -149 -114 -147 -122 4 -18 153 -341 161 -350 3
-4 28 5 55 20 40 22 52 35 65 72 17 46 67 90 103 90 38 0 88 -30 117 -70 54
-75 53 -157 -2 -191 -41 -24 -74 -24 -115 1 -33 20 -34 20 -60 1 -15 -10 -40
-33 -56 -49 l-29 -31 48 -30 c177 -112 415 38 391 247 -8 71 -26 111 -73 162
-102 114 -277 120 -359 13 l-27 -36 -29 58 c-21 40 -26 60 -18 65 63 39 209
147 209 155 1 13 -67 105 -77 105 -4 -1 -74 -50 -157 -110z"/>
<path d="M7538 8329 l-148 -131 35 -43 c33 -39 40 -43 92 -47 48 -4 61 -10 85
-37 48 -53 36 -133 -29 -192 -64 -59 -118 -65 -165 -18 -29 29 -30 33 -25 87
l6 58 -60 37 -59 37 -11 -27 c-35 -87 -18 -189 44 -259 152 -173 422 -93 468
138 21 106 -30 206 -128 250 l-42 18 44 41 c25 23 50 39 57 36 7 -3 56 -39
108 -81 52 -42 98 -76 102 -76 9 0 78 90 78 101 0 8 -291 239 -300 239 -3 -1
-71 -60 -152 -131z"/>
<path d="M5370 8144 c-361 -44 -603 -112 -885 -248 -276 -134 -476 -276 -696
-495 -395 -396 -637 -876 -726 -1441 -25 -162 -25 -567 0 -730 42 -268 116
-507 231 -745 134 -276 276 -476 495 -696 298 -297 622 -497 1021 -627 383
-126 840 -156 1246 -82 301 55 633 183 884 340 323 202 629 507 830 830 174
278 303 633 357 980 25 163 25 568 0 730 -43 272 -116 509 -231 745 -135 278
-276 476 -495 696 -220 219 -420 361 -696 495 -234 113 -476 189 -735 229
-101 16 -516 29 -600 19z m517 -219 c490 -65 913 -259 1288 -593 277 -246 515
-608 639 -969 87 -257 126 -491 126 -768 0 -275 -39 -512 -125 -764 -278 -812
-972 -1401 -1830 -1553 -162 -28 -509 -35 -675 -14 -732 96 -1354 501 -1730
1126 -307 509 -406 1136 -274 1727 213 954 1006 1674 1989 1807 140 19 447 20
592 1z"/>
<path d="M4819 7120 c-189 -18 -295 -66 -420 -190 -95 -93 -170 -201 -247
-356 -52 -103 -132 -289 -132 -305 0 -25 42 -49 86 -49 41 0 49 4 87 47 239
268 302 328 392 369 55 25 180 44 293 44 l74 0 -6 -107 c-36 -595 -70 -870
-142 -1166 -57 -231 -124 -389 -282 -662 -93 -161 -146 -276 -163 -349 -33
-151 75 -297 234 -313 63 -6 102 8 182 67 88 65 137 141 195 305 131 372 206
953 268 2095 l7 125 413 3 c391 2 412 1 412 -16 0 -10 -9 -103 -19 -207 -124
-1209 -105 -1783 72 -2095 60 -107 174 -207 297 -260 45 -20 72 -24 150 -25
89 0 100 2 170 36 94 45 162 100 233 186 123 150 184 315 194 520 5 104 4 126
-11 147 -17 27 -45 33 -76 16 -10 -6 -28 -39 -41 -77 -45 -140 -102 -220 -188
-271 -58 -34 -146 -37 -205 -8 -53 27 -135 110 -168 172 -88 164 -100 562 -43
1489 8 132 17 275 21 318 l6 77 354 0 354 0 0 225 0 225 -1137 -1 c-626 -1
-1172 -5 -1214 -9z"/>
<path d="M3036 8079 c-30 -36 -33 -44 -24 -68 15 -39 11 -171 -6 -222 l-16
-44 48 -42 c56 -49 64 -45 83 46 6 31 15 69 18 86 l7 29 130 -124 c71 -68 160
-154 197 -190 l69 -65 49 55 49 54 -27 27 c-196 189 -527 499 -533 499 -5 0
-24 -18 -44 -41z"/>
<path d="M8114 7911 c-66 -30 -111 -106 -102 -172 4 -27 2 -30 -16 -24 -118
36 -220 -5 -272 -108 -23 -44 -26 -60 -22 -118 16 -218 267 -330 414 -184 45
46 70 114 61 170 -5 33 -5 34 19 24 62 -23 139 -3 186 47 96 103 40 292 -107
360 -60 29 -106 30 -161 5z m157 -150 c59 -59 20 -151 -65 -151 -84 0 -119 94
-55 153 40 37 82 36 120 -2z m-244 -176 c12 -8 27 -33 34 -54 10 -34 9 -44 -8
-73 -10 -18 -34 -43 -53 -55 -104 -71 -218 34 -147 137 44 65 115 83 174 45z"/>
<path d="M2585 7508 l-27 -53 129 -265 129 -265 51 -27 c28 -16 53 -28 56 -28
3 0 38 56 77 125 39 68 75 127 81 130 5 3 36 -10 70 -30 34 -20 63 -35 64 -33
9 10 65 110 65 117 0 4 -27 22 -60 41 -33 19 -60 39 -60 44 0 6 9 26 20 43
l20 33 -23 13 c-12 8 -34 21 -49 30 -38 23 -42 22 -64 -18 -10 -19 -22 -35
-27 -35 -5 0 -99 52 -209 115 -110 63 -203 115 -208 115 -4 0 -20 -24 -35 -52z
m280 -249 l105 -61 -27 -46 c-15 -26 -35 -60 -44 -76 l-17 -29 -66 131 c-36
73 -66 134 -66 137 0 10 12 4 115 -56z"/>
<path d="M8485 7337 c-114 -38 -185 -113 -201 -214 -12 -80 37 -174 107 -203
l31 -13 -29 -12 c-65 -28 -132 -36 -168 -21 -56 24 -72 81 -35 129 11 14 20
28 20 31 0 4 -16 31 -37 61 l-36 56 -29 -28 c-115 -110 -75 -300 77 -372 124
-58 355 11 512 153 87 78 119 169 94 263 -34 127 -184 210 -306 170z m156
-156 c32 -33 36 -58 15 -99 -32 -62 -109 -107 -169 -99 -54 7 -82 37 -82 87 0
47 38 92 100 121 60 28 101 25 136 -10z"/>
<path d="M2236 6794 l-18 -56 26 -27 c35 -36 74 -126 83 -191 8 -53 8 -53 58
-71 67 -23 75 -23 75 4 0 22 -22 122 -35 164 -7 20 13 16 246 -62 140 -47 259
-83 265 -81 10 4 50 123 43 130 -4 3 -717 246 -723 246 -1 0 -10 -25 -20 -56z"/>
<path d="M8900 6688 c-25 -6 -46 -11 -48 -12 -1 -2 14 -70 33 -152 19 -82 35
-154 35 -161 0 -7 -21 -3 -61 13 -128 52 -221 68 -401 69 -110 0 -171 -4 -178
-11 -8 -8 -7 -26 4 -69 8 -31 17 -59 19 -61 2 -3 46 0 96 6 163 20 381 -15
525 -84 66 -32 75 -34 119 -24 26 5 47 15 47 21 0 7 -23 117 -52 244 -59 259
-47 241 -138 221z"/>
<path d="M2705 6128 c-18 -77 -22 -120 -11 -123 18 -6 129 -25 131 -22 3 4 25
120 25 133 0 6 -21 15 -47 19 -27 3 -58 9 -70 12 -17 4 -23 0 -28 -19z"/>
<path d="M8785 5951 c-136 -62 -183 -211 -97 -313 l26 -31 -59 7 c-171 21
-222 141 -84 198 11 5 -14 138 -25 138 -27 -1 -94 -40 -123 -73 -40 -46 -56
-97 -51 -162 9 -110 83 -197 196 -232 78 -25 303 -25 382 -1 152 47 232 166
201 302 -15 66 -75 139 -136 167 -55 25 -175 25 -230 0z m213 -148 c21 -15 28
-30 30 -62 3 -36 -1 -46 -28 -71 -78 -73 -228 -45 -246 45 -7 37 23 80 70 101
44 20 139 13 174 -13z"/>
<path d="M2500 5853 c-36 -14 -74 -49 -90 -85 l-17 -39 -28 37 c-83 109 -243
87 -306 -42 -61 -128 -19 -273 96 -325 65 -30 71 -27 84 42 7 34 11 62 9 62
-57 28 -79 44 -88 68 -35 84 62 155 134 98 16 -12 31 -38 37 -65 8 -29 17 -44
28 -44 9 0 33 -3 54 -6 l37 -7 0 52 c0 45 4 57 30 83 29 29 34 30 92 26 53 -4
65 -9 89 -36 43 -48 40 -100 -6 -141 -20 -17 -45 -31 -57 -31 -19 0 -20 -4
-14 -52 3 -29 6 -61 6 -70 0 -21 35 -24 77 -6 93 41 146 126 146 236 0 111
-55 195 -156 237 -35 15 -127 19 -157 8z"/>
<path d="M8462 5294 c-107 -53 -158 -189 -120 -315 16 -55 73 -118 132 -145
92 -43 166 -27 229 46 20 24 37 37 37 29 0 -8 11 -31 25 -50 73 -99 223 -91
298 18 53 78 60 198 16 270 -21 33 -100 93 -123 93 -6 0 -21 -27 -32 -60 l-21
-61 28 -15 c42 -21 62 -57 55 -98 -11 -56 -57 -84 -113 -65 -39 12 -63 52 -63
102 0 32 -2 34 -55 49 l-55 15 0 -24 c0 -36 -25 -88 -51 -107 -29 -20 -79 -21
-122 -2 -103 43 -98 170 7 198 40 10 45 15 50 47 3 20 6 51 6 69 0 30 -2 32
-38 32 -21 0 -62 -12 -90 -26z"/>
<path d="M2790 4992 c-36 -8 -66 -15 -67 -16 -1 -1 5 -32 13 -69 17 -75 18
-75 103 -55 39 9 51 16 51 30 0 25 -21 111 -29 119 -3 3 -35 -1 -71 -9z"/>
<path d="M8188 4557 c-48 -122 -90 -229 -93 -239 -5 -12 6 -21 50 -37 31 -12
59 -21 64 -21 4 0 29 55 56 123 26 67 52 126 56 131 9 10 30 -34 89 -176 42
-102 84 -163 139 -204 98 -71 199 -66 278 13 75 74 108 182 84 271 -13 46 -95
142 -122 142 -21 0 -86 -123 -68 -129 8 -2 26 -17 41 -32 30 -29 38 -82 18
-120 -16 -29 -68 -52 -102 -45 -68 13 -111 72 -177 239 -42 106 -73 164 -113
214 -30 38 -94 93 -107 93 -3 0 -45 -100 -93 -223z"/>
<path d="M2875 4697 c-33 -11 -62 -21 -64 -23 -6 -6 31 -124 41 -130 5 -3 37
4 72 16 l64 21 -20 62 c-11 34 -23 65 -27 68 -3 4 -33 -3 -66 -14z"/>
<path d="M2985 4408 c-33 -17 -61 -32 -63 -33 -6 -6 59 -125 68 -125 17 0 120
54 120 62 0 9 -59 128 -63 128 -1 -1 -29 -15 -62 -32z"/>
<path d="M7994 4111 c-47 -22 -107 -78 -129 -121 -62 -119 -18 -272 94 -334
60 -32 104 -33 163 -3 l46 23 0 -43 c2 -95 74 -163 171 -163 61 0 105 17 152
58 79 69 106 192 62 278 -38 72 -48 74 -99 23 l-45 -45 22 -40 c37 -67 2 -134
-70 -134 -68 0 -105 66 -76 136 l16 39 -43 36 -42 37 -22 -35 c-49 -81 -131
-82 -198 -3 -57 68 -15 170 69 170 20 0 45 -4 55 -10 16 -9 23 -2 53 56 l35
65 -26 11 c-51 21 -143 20 -188 -1z"/>
<path d="M3048 4099 c-46 -13 -111 -68 -132 -113 -9 -19 -16 -57 -16 -85 0
-50 0 -50 -26 -41 -40 16 -106 12 -144 -9 -19 -10 -48 -37 -65 -60 -92 -131
38 -361 204 -361 101 0 181 78 181 176 0 30 3 35 18 29 87 -36 174 -20 233 42
54 56 69 93 69 165 -1 140 -102 254 -234 263 -28 2 -67 -1 -88 -6z m169 -164
c66 -76 -21 -208 -126 -191 -71 11 -106 99 -65 162 43 65 147 81 191 29z
m-304 -205 c66 -52 27 -160 -58 -160 -37 0 -62 16 -80 50 -22 43 -19 68 14
101 36 35 86 39 124 9z"/>
<path d="M7573 3620 c-61 -27 -128 -100 -148 -161 -34 -100 3 -211 87 -267 36
-23 52 -27 114 -27 l72 0 -5 -32 c-12 -73 29 -153 98 -189 36 -18 120 -18 164
0 48 20 120 90 145 140 35 72 23 160 -29 220 -28 32 -73 49 -129 48 l-53 0 7
44 c13 91 -36 183 -119 223 -56 27 -146 28 -204 1z m135 -130 c95 -58 94 -178
-3 -210 -94 -31 -196 107 -139 188 31 44 90 53 142 22z m249 -272 c61 -57 17
-159 -69 -158 -41 1 -88 53 -88 98 0 24 36 71 64 82 28 12 66 3 93 -22z"/>
<path d="M3440 3600 c-51 -24 -95 -63 -116 -102 -18 -34 -18 -115 0 -149 l14
-27 -57 1 c-85 0 -135 -31 -166 -106 -56 -133 68 -309 220 -310 52 -1 145 33
145 53 0 6 -17 33 -37 60 -34 46 -38 48 -57 34 -11 -8 -38 -14 -59 -14 -82 0
-118 92 -56 144 37 31 73 33 117 6 l34 -21 43 35 43 36 -39 39 c-30 30 -39 46
-39 72 0 49 34 97 83 119 52 23 87 17 122 -20 23 -24 26 -35 22 -72 -2 -24 -7
-52 -11 -63 -5 -16 5 -28 46 -58 l53 -38 17 21 c57 70 46 200 -23 283 -72 87
-204 121 -299 77z"/>
<path d="M3965 3211 c-117 -53 -175 -172 -129 -264 9 -18 23 -40 32 -49 14
-17 13 -18 -17 -18 -73 0 -141 -55 -161 -131 -22 -81 36 -196 120 -239 95 -48
182 -42 259 19 47 37 46 39 -20 92 l-39 31 -32 -23 c-96 -69 -202 39 -119 122
31 31 61 36 107 18 26 -9 31 -7 61 28 18 21 32 43 33 48 0 6 -16 17 -35 24
-67 24 -87 98 -44 167 42 69 120 84 171 34 26 -27 29 -36 27 -82 l-3 -52 49
-22 c60 -27 81 -29 89 -8 10 25 7 130 -4 160 -34 88 -149 164 -249 164 -32 0
-73 -8 -96 -19z"/>
<path d="M7210 3125 c-69 -41 -128 -74 -132 -74 -4 -1 -23 28 -43 64 l-37 65
-59 -33 c-32 -17 -59 -36 -59 -40 0 -5 16 -37 35 -71 l35 -62 -40 -23 c-22
-12 -40 -24 -40 -25 0 -9 53 -97 61 -102 5 -3 25 5 45 17 30 18 38 19 45 8 5
-8 60 -102 121 -209 61 -107 112 -196 113 -198 3 -4 93 48 103 61 5 7 19 142
30 301 l21 289 -32 54 c-17 29 -34 53 -37 52 -3 0 -61 -34 -130 -74z m70 -246
c-5 -74 -10 -143 -10 -154 0 -11 -30 31 -66 94 -36 62 -64 114 -62 116 9 9
143 83 145 81 2 -2 -1 -63 -7 -137z"/>
<path d="M4530 2921 l-24 -69 -39 14 c-22 8 -43 14 -46 14 -10 0 -43 -108 -36
-119 3 -5 19 -12 35 -16 16 -4 32 -11 36 -16 3 -5 -27 -107 -68 -227 -40 -119
-73 -221 -73 -226 0 -5 25 -18 56 -28 l56 -19 234 176 234 176 21 63 21 62
-143 48 c-85 28 -144 53 -144 60 0 7 9 39 20 71 11 32 17 62 13 66 -10 8 -102
39 -118 39 -6 0 -21 -31 -35 -69z m153 -263 c36 -13 67 -27 67 -33 0 -9 -222
-186 -227 -181 -2 2 52 169 72 224 6 16 10 16 88 -10z"/>
<path d="M6445 2946 c-64 -29 -110 -82 -130 -148 -20 -67 -19 -83 5 -161 34
-111 123 -181 230 -181 65 -1 114 24 147 72 27 42 35 30 41 -64 5 -83 -9 -117
-56 -135 -34 -13 -66 -5 -94 25 l-23 24 -63 -28 c-73 -34 -73 -42 -1 -104 90
-76 217 -66 308 26 53 52 71 101 71 192 0 207 -121 447 -247 490 -66 23 -129
20 -188 -8z m143 -126 c69 -42 94 -162 46 -219 -55 -66 -149 -21 -180 86 -18
61 -13 97 18 131 27 28 72 29 116 2z"/>
<path d="M5900 2819 c-118 -15 -221 -28 -228 -29 -9 0 -11 -10 -7 -35 3 -19 7
-50 10 -68 l5 -34 133 18 c72 10 138 18 146 19 17 0 0 -26 -98 -150 -82 -103
-119 -174 -128 -248 -20 -171 138 -282 323 -227 96 28 163 112 164 203 l0 42
-69 0 -68 0 -7 -38 c-21 -136 -195 -130 -196 6 0 57 21 96 130 232 103 131
148 212 157 288 l6 52 -29 -1 c-16 -1 -126 -14 -244 -30z"/>
<path d="M5215 2831 c-117 -30 -195 -134 -195 -261 0 -115 64 -210 161 -239
46 -14 89 -8 137 20 38 22 38 21 12 -64 -29 -95 -87 -135 -148 -103 -31 16
-42 34 -42 67 0 17 -8 19 -75 19 -41 0 -75 -4 -75 -8 0 -34 35 -113 62 -141
43 -44 80 -62 143 -68 108 -11 203 45 254 150 85 174 93 413 18 524 -53 78
-169 125 -252 104z m114 -156 c27 -31 31 -43 31 -91 0 -131 -83 -196 -161
-126 -26 23 -33 38 -37 80 -13 140 90 224 167 137z"/>
</g>
</svg>
